<mxfile host="app.diagrams.net" modified="2022-04-18T09:28:40.096Z" agent="5.0 (Windows NT 10.0; Win64; x64) AppleWebKit/537.36 (KHTML, like Gecko) Chrome/100.0.4896.75 Safari/537.36" etag="ZFcRBb5CFk2ZmditCLFt" version="17.4.4" type="github">
  <diagram id="C5RBs43oDa-KdzZeNtuy" name="Page-1">
    <mxGraphModel dx="1638" dy="476" grid="1" gridSize="10" guides="1" tooltips="1" connect="1" arrows="1" fold="1" page="1" pageScale="1" pageWidth="827" pageHeight="1169" math="0" shadow="0">
      <root>
        <mxCell id="WIyWlLk6GJQsqaUBKTNV-0" />
        <mxCell id="WIyWlLk6GJQsqaUBKTNV-1" parent="WIyWlLk6GJQsqaUBKTNV-0" />
        <mxCell id="WO8M1z-u7tfJCitAU0YR-2" value="" style="edgeStyle=orthogonalEdgeStyle;rounded=0;orthogonalLoop=1;jettySize=auto;html=1;" edge="1" parent="WIyWlLk6GJQsqaUBKTNV-1" source="WO8M1z-u7tfJCitAU0YR-0" target="WO8M1z-u7tfJCitAU0YR-1">
          <mxGeometry relative="1" as="geometry" />
        </mxCell>
        <mxCell id="WO8M1z-u7tfJCitAU0YR-0" value="Start" style="strokeWidth=2;html=1;shape=mxgraph.flowchart.start_2;whiteSpace=wrap;fillColor=#fad7ac;strokeColor=#b46504;" vertex="1" parent="WIyWlLk6GJQsqaUBKTNV-1">
          <mxGeometry x="110" y="70" width="100" height="100" as="geometry" />
        </mxCell>
        <mxCell id="WO8M1z-u7tfJCitAU0YR-43" style="edgeStyle=orthogonalEdgeStyle;rounded=0;orthogonalLoop=1;jettySize=auto;html=1;exitX=0.5;exitY=1;exitDx=0;exitDy=0;entryX=0.5;entryY=0;entryDx=0;entryDy=0;" edge="1" parent="WIyWlLk6GJQsqaUBKTNV-1" source="WO8M1z-u7tfJCitAU0YR-1" target="WO8M1z-u7tfJCitAU0YR-16">
          <mxGeometry relative="1" as="geometry" />
        </mxCell>
        <mxCell id="WO8M1z-u7tfJCitAU0YR-1" value="接收到UC传来的注销账号" style="whiteSpace=wrap;html=1;strokeWidth=2;fillColor=#fad7ac;strokeColor=#b46504;" vertex="1" parent="WIyWlLk6GJQsqaUBKTNV-1">
          <mxGeometry x="100" y="270" width="120" height="60" as="geometry" />
        </mxCell>
        <mxCell id="WO8M1z-u7tfJCitAU0YR-45" value="" style="edgeStyle=orthogonalEdgeStyle;rounded=0;orthogonalLoop=1;jettySize=auto;html=1;" edge="1" parent="WIyWlLk6GJQsqaUBKTNV-1" source="WO8M1z-u7tfJCitAU0YR-16" target="WO8M1z-u7tfJCitAU0YR-47">
          <mxGeometry relative="1" as="geometry" />
        </mxCell>
        <mxCell id="WO8M1z-u7tfJCitAU0YR-102" style="edgeStyle=orthogonalEdgeStyle;orthogonalLoop=1;jettySize=auto;html=0;exitX=1;exitY=0.5;exitDx=0;exitDy=0;shadow=1;labelBorderColor=default;curved=1;" edge="1" parent="WIyWlLk6GJQsqaUBKTNV-1" source="WO8M1z-u7tfJCitAU0YR-16" target="WO8M1z-u7tfJCitAU0YR-56">
          <mxGeometry relative="1" as="geometry" />
        </mxCell>
        <mxCell id="WO8M1z-u7tfJCitAU0YR-16" value="统计相关信息" style="whiteSpace=wrap;html=1;strokeWidth=2;fillColor=#fad7ac;strokeColor=#b46504;" vertex="1" parent="WIyWlLk6GJQsqaUBKTNV-1">
          <mxGeometry x="100" y="400" width="120" height="60" as="geometry" />
        </mxCell>
        <mxCell id="WO8M1z-u7tfJCitAU0YR-80" value="" style="edgeStyle=orthogonalEdgeStyle;rounded=0;orthogonalLoop=1;jettySize=auto;html=1;" edge="1" parent="WIyWlLk6GJQsqaUBKTNV-1" source="WO8M1z-u7tfJCitAU0YR-44" target="WO8M1z-u7tfJCitAU0YR-79">
          <mxGeometry relative="1" as="geometry" />
        </mxCell>
        <mxCell id="WO8M1z-u7tfJCitAU0YR-85" value="否" style="edgeLabel;html=1;align=center;verticalAlign=middle;resizable=0;points=[];" vertex="1" connectable="0" parent="WO8M1z-u7tfJCitAU0YR-80">
          <mxGeometry x="-0.2333" relative="1" as="geometry">
            <mxPoint as="offset" />
          </mxGeometry>
        </mxCell>
        <mxCell id="WO8M1z-u7tfJCitAU0YR-81" value="是" style="edgeStyle=orthogonalEdgeStyle;rounded=0;orthogonalLoop=1;jettySize=auto;html=1;exitX=0.5;exitY=1;exitDx=0;exitDy=0;" edge="1" parent="WIyWlLk6GJQsqaUBKTNV-1" source="WO8M1z-u7tfJCitAU0YR-44" target="WO8M1z-u7tfJCitAU0YR-52">
          <mxGeometry relative="1" as="geometry" />
        </mxCell>
        <mxCell id="WO8M1z-u7tfJCitAU0YR-44" value="判断是否要自动删除" style="rhombus;whiteSpace=wrap;html=1;strokeWidth=2;fillColor=#fad7ac;strokeColor=#b46504;" vertex="1" parent="WIyWlLk6GJQsqaUBKTNV-1">
          <mxGeometry x="90" y="650" width="140" height="100" as="geometry" />
        </mxCell>
        <mxCell id="WO8M1z-u7tfJCitAU0YR-78" style="edgeStyle=orthogonalEdgeStyle;orthogonalLoop=1;jettySize=auto;html=1;exitX=1;exitY=0.5;exitDx=0;exitDy=0;curved=1;" edge="1" parent="WIyWlLk6GJQsqaUBKTNV-1" source="WO8M1z-u7tfJCitAU0YR-47" target="WO8M1z-u7tfJCitAU0YR-56">
          <mxGeometry relative="1" as="geometry" />
        </mxCell>
        <mxCell id="WO8M1z-u7tfJCitAU0YR-83" style="edgeStyle=orthogonalEdgeStyle;rounded=0;orthogonalLoop=1;jettySize=auto;html=1;exitX=0.5;exitY=1;exitDx=0;exitDy=0;" edge="1" parent="WIyWlLk6GJQsqaUBKTNV-1" source="WO8M1z-u7tfJCitAU0YR-47" target="WO8M1z-u7tfJCitAU0YR-44">
          <mxGeometry relative="1" as="geometry" />
        </mxCell>
        <mxCell id="WO8M1z-u7tfJCitAU0YR-47" value="状态设置为未注销，然后保存到数据库中" style="whiteSpace=wrap;html=1;strokeWidth=2;fillColor=#fad7ac;strokeColor=#b46504;" vertex="1" parent="WIyWlLk6GJQsqaUBKTNV-1">
          <mxGeometry x="100" y="540" width="120" height="60" as="geometry" />
        </mxCell>
        <mxCell id="WO8M1z-u7tfJCitAU0YR-91" style="edgeStyle=orthogonalEdgeStyle;orthogonalLoop=1;jettySize=auto;html=1;exitX=0;exitY=0.5;exitDx=0;exitDy=0;entryX=0.5;entryY=0;entryDx=0;entryDy=0;entryPerimeter=0;curved=1;" edge="1" parent="WIyWlLk6GJQsqaUBKTNV-1" source="WO8M1z-u7tfJCitAU0YR-52" target="WO8M1z-u7tfJCitAU0YR-68">
          <mxGeometry relative="1" as="geometry">
            <Array as="points">
              <mxPoint x="-20" y="840" />
              <mxPoint x="-20" y="10" />
              <mxPoint x="590" y="10" />
            </Array>
          </mxGeometry>
        </mxCell>
        <mxCell id="WO8M1z-u7tfJCitAU0YR-52" value="将调用网易注销接口所需要的参数传入到MQ中" style="whiteSpace=wrap;html=1;strokeWidth=2;fillColor=#fad7ac;strokeColor=#b46504;" vertex="1" parent="WIyWlLk6GJQsqaUBKTNV-1">
          <mxGeometry x="100" y="810" width="120" height="60" as="geometry" />
        </mxCell>
        <mxCell id="WO8M1z-u7tfJCitAU0YR-56" value="DB" style="strokeWidth=2;html=1;shape=mxgraph.flowchart.direct_data;whiteSpace=wrap;fillColor=#fad7ac;strokeColor=#b46504;" vertex="1" parent="WIyWlLk6GJQsqaUBKTNV-1">
          <mxGeometry x="330" y="540" width="100" height="60" as="geometry" />
        </mxCell>
        <mxCell id="WO8M1z-u7tfJCitAU0YR-71" value="" style="edgeStyle=orthogonalEdgeStyle;rounded=0;orthogonalLoop=1;jettySize=auto;html=1;" edge="1" parent="WIyWlLk6GJQsqaUBKTNV-1" source="WO8M1z-u7tfJCitAU0YR-68" target="WO8M1z-u7tfJCitAU0YR-70">
          <mxGeometry relative="1" as="geometry" />
        </mxCell>
        <mxCell id="WO8M1z-u7tfJCitAU0YR-68" value="Start" style="strokeWidth=2;html=1;shape=mxgraph.flowchart.start_2;whiteSpace=wrap;fillColor=#fad7ac;strokeColor=#b46504;" vertex="1" parent="WIyWlLk6GJQsqaUBKTNV-1">
          <mxGeometry x="540" y="70" width="100" height="100" as="geometry" />
        </mxCell>
        <mxCell id="WO8M1z-u7tfJCitAU0YR-73" value="" style="edgeStyle=orthogonalEdgeStyle;rounded=0;orthogonalLoop=1;jettySize=auto;html=1;" edge="1" parent="WIyWlLk6GJQsqaUBKTNV-1" source="WO8M1z-u7tfJCitAU0YR-70" target="WO8M1z-u7tfJCitAU0YR-72">
          <mxGeometry relative="1" as="geometry" />
        </mxCell>
        <mxCell id="WO8M1z-u7tfJCitAU0YR-70" value="从MQ中获取调用网易注销接口需要的信息" style="whiteSpace=wrap;html=1;strokeWidth=2;fillColor=#fad7ac;strokeColor=#b46504;" vertex="1" parent="WIyWlLk6GJQsqaUBKTNV-1">
          <mxGeometry x="530" y="270" width="120" height="60" as="geometry" />
        </mxCell>
        <mxCell id="WO8M1z-u7tfJCitAU0YR-75" value="" style="edgeStyle=orthogonalEdgeStyle;rounded=0;orthogonalLoop=1;jettySize=auto;html=1;" edge="1" parent="WIyWlLk6GJQsqaUBKTNV-1" source="WO8M1z-u7tfJCitAU0YR-72" target="WO8M1z-u7tfJCitAU0YR-74">
          <mxGeometry relative="1" as="geometry" />
        </mxCell>
        <mxCell id="WO8M1z-u7tfJCitAU0YR-72" value="进行网易注销接口参数拼接" style="whiteSpace=wrap;html=1;strokeWidth=2;fillColor=#fad7ac;strokeColor=#b46504;" vertex="1" parent="WIyWlLk6GJQsqaUBKTNV-1">
          <mxGeometry x="530" y="410" width="120" height="60" as="geometry" />
        </mxCell>
        <mxCell id="WO8M1z-u7tfJCitAU0YR-77" value="" style="edgeStyle=orthogonalEdgeStyle;rounded=0;orthogonalLoop=1;jettySize=auto;html=1;" edge="1" parent="WIyWlLk6GJQsqaUBKTNV-1" source="WO8M1z-u7tfJCitAU0YR-74" target="WO8M1z-u7tfJCitAU0YR-76">
          <mxGeometry relative="1" as="geometry" />
        </mxCell>
        <mxCell id="WO8M1z-u7tfJCitAU0YR-74" value="调用网易注销接口" style="whiteSpace=wrap;html=1;strokeWidth=2;fillColor=#fad7ac;strokeColor=#b46504;" vertex="1" parent="WIyWlLk6GJQsqaUBKTNV-1">
          <mxGeometry x="530" y="550" width="120" height="60" as="geometry" />
        </mxCell>
        <mxCell id="WO8M1z-u7tfJCitAU0YR-88" value="" style="edgeStyle=orthogonalEdgeStyle;rounded=0;orthogonalLoop=1;jettySize=auto;html=1;" edge="1" parent="WIyWlLk6GJQsqaUBKTNV-1" source="WO8M1z-u7tfJCitAU0YR-76" target="WO8M1z-u7tfJCitAU0YR-87">
          <mxGeometry relative="1" as="geometry" />
        </mxCell>
        <mxCell id="WO8M1z-u7tfJCitAU0YR-76" value="获得接口的返回值" style="whiteSpace=wrap;html=1;strokeWidth=2;fillColor=#fad7ac;strokeColor=#b46504;" vertex="1" parent="WIyWlLk6GJQsqaUBKTNV-1">
          <mxGeometry x="530" y="690" width="120" height="60" as="geometry" />
        </mxCell>
        <mxCell id="WO8M1z-u7tfJCitAU0YR-79" value="结束" style="whiteSpace=wrap;html=1;strokeWidth=2;fillColor=#fad7ac;strokeColor=#b46504;" vertex="1" parent="WIyWlLk6GJQsqaUBKTNV-1">
          <mxGeometry x="320" y="670" width="120" height="60" as="geometry" />
        </mxCell>
        <mxCell id="WO8M1z-u7tfJCitAU0YR-94" value="" style="edgeStyle=orthogonalEdgeStyle;rounded=0;orthogonalLoop=1;jettySize=auto;html=1;" edge="1" parent="WIyWlLk6GJQsqaUBKTNV-1" source="WO8M1z-u7tfJCitAU0YR-87" target="WO8M1z-u7tfJCitAU0YR-93">
          <mxGeometry relative="1" as="geometry" />
        </mxCell>
        <mxCell id="WO8M1z-u7tfJCitAU0YR-87" value="根据返回的状态值来设置状态" style="whiteSpace=wrap;html=1;strokeWidth=2;fillColor=#fad7ac;strokeColor=#b46504;" vertex="1" parent="WIyWlLk6GJQsqaUBKTNV-1">
          <mxGeometry x="530" y="830" width="120" height="60" as="geometry" />
        </mxCell>
        <mxCell id="WO8M1z-u7tfJCitAU0YR-95" style="edgeStyle=orthogonalEdgeStyle;orthogonalLoop=1;jettySize=auto;html=1;exitX=0;exitY=0.5;exitDx=0;exitDy=0;entryX=1;entryY=0.5;entryDx=0;entryDy=0;entryPerimeter=0;curved=1;" edge="1" parent="WIyWlLk6GJQsqaUBKTNV-1" source="WO8M1z-u7tfJCitAU0YR-93" target="WO8M1z-u7tfJCitAU0YR-56">
          <mxGeometry relative="1" as="geometry" />
        </mxCell>
        <mxCell id="WO8M1z-u7tfJCitAU0YR-93" value="然后更新数据库里面的记录状态" style="whiteSpace=wrap;html=1;strokeWidth=2;fillColor=#fad7ac;strokeColor=#b46504;" vertex="1" parent="WIyWlLk6GJQsqaUBKTNV-1">
          <mxGeometry x="530" y="970" width="120" height="60" as="geometry" />
        </mxCell>
        <mxCell id="WO8M1z-u7tfJCitAU0YR-98" value="" style="edgeStyle=orthogonalEdgeStyle;rounded=0;orthogonalLoop=1;jettySize=auto;html=1;" edge="1" parent="WIyWlLk6GJQsqaUBKTNV-1" source="WO8M1z-u7tfJCitAU0YR-96" target="WO8M1z-u7tfJCitAU0YR-97">
          <mxGeometry relative="1" as="geometry" />
        </mxCell>
        <mxCell id="WO8M1z-u7tfJCitAU0YR-96" value="Start" style="strokeWidth=2;html=1;shape=mxgraph.flowchart.start_2;whiteSpace=wrap;fillColor=#fad7ac;strokeColor=#b46504;" vertex="1" parent="WIyWlLk6GJQsqaUBKTNV-1">
          <mxGeometry x="827" y="70" width="100" height="100" as="geometry" />
        </mxCell>
        <mxCell id="WO8M1z-u7tfJCitAU0YR-100" value="" style="edgeStyle=orthogonalEdgeStyle;rounded=0;orthogonalLoop=1;jettySize=auto;html=1;" edge="1" parent="WIyWlLk6GJQsqaUBKTNV-1" source="WO8M1z-u7tfJCitAU0YR-97" target="WO8M1z-u7tfJCitAU0YR-99">
          <mxGeometry relative="1" as="geometry" />
        </mxCell>
        <mxCell id="WO8M1z-u7tfJCitAU0YR-97" value="管理后台，管理员手动进行注销" style="whiteSpace=wrap;html=1;strokeWidth=2;fillColor=#fad7ac;strokeColor=#b46504;" vertex="1" parent="WIyWlLk6GJQsqaUBKTNV-1">
          <mxGeometry x="817" y="270" width="120" height="60" as="geometry" />
        </mxCell>
        <mxCell id="WO8M1z-u7tfJCitAU0YR-101" style="edgeStyle=orthogonalEdgeStyle;orthogonalLoop=1;jettySize=auto;html=1;exitX=0.5;exitY=1;exitDx=0;exitDy=0;entryX=1;entryY=0.5;entryDx=0;entryDy=0;entryPerimeter=0;curved=1;" edge="1" parent="WIyWlLk6GJQsqaUBKTNV-1" source="WO8M1z-u7tfJCitAU0YR-99" target="WO8M1z-u7tfJCitAU0YR-68">
          <mxGeometry relative="1" as="geometry" />
        </mxCell>
        <mxCell id="WO8M1z-u7tfJCitAU0YR-99" value="将网易注销接口需要参数传入到MQ中" style="whiteSpace=wrap;html=1;strokeWidth=2;fillColor=#fad7ac;strokeColor=#b46504;" vertex="1" parent="WIyWlLk6GJQsqaUBKTNV-1">
          <mxGeometry x="817" y="410" width="120" height="60" as="geometry" />
        </mxCell>
      </root>
    </mxGraphModel>
  </diagram>
</mxfile>
